# xmcd CD Database Entry
#
# Track frame offsets:
# 150
# 20486
# 34472
# 52544
# 69405
# 88772
# 103379
# 119752
# 130615
# 147662
# 159465
# 176547
#
# Disc length: 2536 seconds
#
# Revision: 1
# Processed by: cddbd v1.5PL3 Copyright (c) Steve Scherf et al.
# Submitted via: tcd 2.0b
#
DISCID=a909e60c
DTITLE=Etzakit - Goiz Edo Noiz?
DYEAR=1900
DGENRE=
TTITLE0=Goiz Edo Noiz?
TTITLE1=Gaur
TTITLE2=Urteak
TTITLE3=Zarena
TTITLE4=Ene Kuttun
TTITLE5=Petrupopari "Beltza"
TTITLE6=Egina
TTITLE7=Landakanda
TTITLE8=Denbora
TTITLE9=Bizitzeko Bizi
TTITLE10=Kubana
TTITLE11=Bihotz Zatituta
EXTD=
EXTT0=
EXTT1=
EXTT2=
EXTT3=
EXTT4=
EXTT5=
EXTT6=
EXTT7=
EXTT8=
EXTT9=
EXTT10=
EXTT11=
PLAYORDER=
